HIERARCHY
ROOT Pelvis
{
	OFFSET 0.000000 0.000000 0.000000
	CHANNELS 6 Xposition Yposition Zposition Xrotation Yrotation Zrotation
	JOINT LeftUpLeg_virtual
	{
		OFFSET 0.000000 0.000000 0.000000
		CHANNELS 3 Xrotation Yrotation Zrotation
		JOINT LeftUpLeg
		{
			OFFSET 18.735201 -5.666702 -4.541200
			CHANNELS 3 Xrotation Yrotation Zrotation
			JOINT LeftLeg
			{
				OFFSET -0.021200 -31.938179 0.493100
				CHANNELS 3 Xrotation Yrotation Zrotation
				JOINT LeftFoot
				{
					OFFSET 0.021200 -31.938179 -4.336299
					CHANNELS 3 Xrotation Yrotation Zrotation
					JOINT LeftToeBase
					{
						OFFSET 0.943001 -26.722000 15.023500
						CHANNELS 3 Xrotation Yrotation Zrotation
						End Site
						{
							OFFSET 0 0 0
						}
					}
				}
			}
		}
	}
	JOINT RightUpLeg_virtual
	{
		OFFSET 0.000000 0.000000 0.000000
		CHANNELS 3 Xrotation Yrotation Zrotation
		JOINT RightUpLeg
		{
			OFFSET -18.735201 -5.666702 -4.541200
			CHANNELS 3 Xrotation Yrotation Zrotation
			JOINT RightLeg
			{
				OFFSET 0.018946 -31.938133 0.493100
				CHANNELS 3 Xrotation Yrotation Zrotation
				JOINT RightFoot
				{
					OFFSET -0.018946 -31.938126 -4.336299
					CHANNELS 3 Xrotation Yrotation Zrotation
					JOINT RightToeBase
					{
						OFFSET -0.943001 -26.722004 15.023500
						CHANNELS 3 Xrotation Yrotation Zrotation
						End Site
						{
							OFFSET 0 0 0
						}
					}
				}
			}
		}
	}
	JOINT Hips_virtual
	{
		OFFSET 0.000000 0.000000 0.000000
		CHANNELS 3 Xrotation Yrotation Zrotation
		JOINT Hips
		{
			OFFSET -0.000000 -0.000000 -0.000000
			CHANNELS 3 Xrotation Yrotation Zrotation
			JOINT Spine
			{
				OFFSET 0.000000 10.199997 -0.299500
				CHANNELS 3 Xrotation Yrotation Zrotation
				JOINT Spine1
				{
					OFFSET 0.000000 11.900002 -1.516600
					CHANNELS 3 Xrotation Yrotation Zrotation
					JOINT Spine2
					{
						OFFSET 0.000000 13.600006 -2.842500
						CHANNELS 3 Xrotation Yrotation Zrotation
						JOINT Neck_virtual
						{
							OFFSET 0.000000 0.000000 0.000000
							CHANNELS 3 Xrotation Yrotation Zrotation
							JOINT Neck
							{
								OFFSET 0.000000 9.624100 -2.890100
								CHANNELS 3 Xrotation Yrotation Zrotation
								JOINT Head
								{
									OFFSET 0.000000 14.068802 -1.351900
									CHANNELS 3 Xrotation Yrotation Zrotation
									End Site
									{
										OFFSET 0 0 0
									}
								}
							}
						}
						JOINT LeftShoulder_virtual
						{
							OFFSET 0.000000 0.000000 0.000000
							CHANNELS 3 Xrotation Yrotation Zrotation
							JOINT LeftShoulder
							{
								OFFSET 15.263000 10.923401 -0.547700
								CHANNELS 3 Xrotation Yrotation Zrotation
								JOINT LeftArm
								{
									OFFSET 25.438599 -2.830597 -13.032500
									CHANNELS 3 Xrotation Yrotation Zrotation
									JOINT LeftForeArm
									{
										OFFSET 29.960503 0.000000 0.000000
										CHANNELS 3 Xrotation Yrotation Zrotation
										JOINT LeftHand
										{
											OFFSET 27.849251 0.000000 0.000000
											CHANNELS 3 Xrotation Yrotation Zrotation
											End Site
											{
												OFFSET 0 0 0
											}
										}
									}
								}
							}
						}
						JOINT RightShoulder_virtual
						{
							OFFSET 0.000000 0.000000 0.000000
							CHANNELS 3 Xrotation Yrotation Zrotation
							JOINT RightShoulder
							{
								OFFSET -15.263000 10.923401 -0.547700
								CHANNELS 3 Xrotation Yrotation Zrotation
								JOINT RightArm
								{
									OFFSET -25.438599 -2.830597 -13.032500
									CHANNELS 3 Xrotation Yrotation Zrotation
									JOINT RightForeArm
									{
										OFFSET -29.960503 0.000000 0.000000
										CHANNELS 3 Xrotation Yrotation Zrotation
										JOINT RightHand
										{
											OFFSET -27.849251 0.000000 0.000000
											CHANNELS 3 Xrotation Yrotation Zrotation
											End Site
											{
												OFFSET 0 0 0
											}
										}
									}
								}
							}
						}
					}
				}
			}
		}
	}
}
MOTION
Frames: 9
Frame Time: 0.03333333
-10.991774 178.870087 21.365395 0.000000 0.000000 0.000000 -2.237809 -9.279390 4.569110 -27.912408 8.722374 27.730559 31.969025 -1.194633 -16.678977 -26.843330 0.751500 -3.454744 0.000000 0.000000 0.000000 -3.297471 -7.472000 4.189901 -23.335369 -11.389104 -24.833608 55.573062 -5.043331 10.226660 -31.138597 -4.322387 14.403298 0.000000 0.000000 0.000000 -3.582547 -7.543206 5.015253 -0.941327 -0.239858 -0.288730 9.205598 0.391673 4.603688 14.481473 -3.308762 5.212846 0.000000 0.000000 0.000000 10.168465 -1.539699 3.323476 2.755950 -1.660374 1.142951 0.000000 0.000000 0.000000 9.479241 -3.441594 4.327099 -4.327507 3.035175 -12.912066 7.944803 -29.266339 -55.339210 -2.407376 -67.700159 -4.608405 0.000000 0.000000 0.000000 11.082911 1.338240 4.434874 4.381757 13.563100 -0.204229 -12.571446 11.579892 71.679106 29.441752 33.779056 -30.794184 0.000000 0.000000 0.000000 
-10.964360 178.946533 21.221565 0.000000 0.000000 0.000000 -2.217216 -9.264898 4.570954 -27.850171 8.918322 27.864346 32.433850 -1.292185 -16.516362 -27.008494 0.813136 -3.297256 0.000000 0.000000 0.000000 -3.264385 -7.555963 4.219901 -23.338789 -11.175812 -24.832585 55.358919 -5.266667 10.224731 -30.432444 -3.996340 14.757131 0.000000 0.000000 0.000000 -3.498890 -7.718754 5.038769 -0.938663 -0.269429 -0.286702 9.346119 0.327562 4.500445 14.369111 -3.334592 5.256852 0.000000 0.000000 0.000000 10.179155 -1.524018 3.360015 2.807314 -1.678912 1.223798 0.000000 0.000000 0.000000 9.578430 -3.450510 4.226364 -4.333470 3.205751 -12.919246 7.421493 -29.284255 -55.631727 -2.269260 -67.672066 -4.696292 0.000000 0.000000 0.000000 11.101733 1.345399 4.485780 4.424746 13.464175 -0.391620 -12.180904 11.712184 71.450889 30.379595 35.137799 -31.713904 0.000000 0.000000 0.000000 
-10.884940 179.130615 21.161001 0.000000 0.000000 0.000000 -1.951117 -9.581947 4.569569 -28.047765 9.100839 27.955414 33.576780 -1.082610 -16.158380 -27.346530 1.134641 -3.004164 0.000000 0.000000 0.000000 -2.956218 -7.886094 4.225312 -23.592553 -10.686867 -24.615507 55.301149 -5.900578 10.239079 -29.972185 -3.787100 14.938621 0.000000 0.000000 0.000000 -3.149036 -8.028192 5.037989 -0.946322 -0.272155 -0.287006 9.463569 0.400246 4.363822 14.236912 -3.370296 5.355346 0.000000 0.000000 0.000000 10.114623 -1.521177 3.394739 2.874454 -1.734268 1.328877 0.000000 0.000000 0.000000 9.638568 -3.463605 4.130621 -4.339554 3.146612 -12.632894 6.572207 -28.952472 -56.112661 -2.457657 -67.976351 -5.264931 0.000000 0.000000 0.000000 11.130171 1.351372 4.610590 4.493101 13.539768 -0.816907 -11.348614 12.509310 70.708181 31.727595 37.139440 -33.188559 0.000000 0.000000 0.000000 
-10.720903 179.372711 21.167540 0.000000 0.000000 0.000000 -1.376684 -10.024535 4.564706 -28.495696 9.220100 27.881271 34.879427 -0.657794 -15.710378 -27.976636 1.534546 -3.016337 0.000000 0.000000 0.000000 -2.343569 -8.258024 4.179777 -24.000494 -9.941116 -24.123731 55.138194 -6.700880 10.217174 -29.668460 -3.629521 15.234156 0.000000 0.000000 0.000000 -2.581308 -8.268393 5.012692 -0.959371 -0.258910 -0.292092 9.560397 0.575766 4.241091 14.072789 -3.443783 5.496033 0.000000 0.000000 0.000000 10.003375 -1.570238 3.424230 2.968329 -1.815316 1.462105 0.000000 0.000000 0.000000 9.621280 -3.515196 4.018000 -4.341275 2.851059 -12.031170 5.507375 -28.232411 -56.568614 -3.046539 -68.579901 -6.321781 0.000000 0.000000 0.000000 11.145476 1.317385 4.774231 4.614510 13.806366 -1.441608 -10.023048 13.862400 69.472409 33.452600 39.632586 -35.185255 0.000000 0.000000 0.000000 
-10.464008 179.638062 21.140408 0.000000 0.000000 0.000000 -0.569553 -10.395451 4.505667 -29.289910 9.244134 27.466650 36.240714 -0.098479 -15.315620 -28.593971 2.001698 -3.518002 0.000000 0.000000 0.000000 -1.502948 -8.492890 4.052533 -24.401274 -9.231860 -23.380827 54.732526 -7.612269 10.219209 -29.984828 -3.633269 15.766563 0.000000 0.000000 0.000000 -1.823203 -8.402325 4.941332 -0.977317 -0.250488 -0.293116 9.600532 0.737568 4.199647 13.896944 -3.616985 5.670175 0.000000 0.000000 0.000000 9.935458 -1.689508 3.449681 3.088038 -1.907174 1.630453 0.000000 0.000000 0.000000 9.538329 -3.650003 3.851279 -4.344163 2.232351 -11.179921 4.493637 -27.246994 -56.688419 -3.928674 -69.359902 -7.708226 0.000000 0.000000 0.000000 11.178449 1.218246 4.930346 4.829972 14.353426 -2.247637 -8.218353 15.665572 67.755572 35.766077 42.580547 -37.801952 0.000000 0.000000 0.000000 
-10.109451 179.955933 21.091599 0.000000 0.000000 0.000000 0.385602 -10.443031 4.374757 -30.460321 9.182400 26.678330 37.573615 0.560658 -15.041344 -29.151691 2.616381 -4.289363 0.000000 0.000000 0.000000 -0.549258 -8.415431 3.831088 -24.552162 -8.934712 -22.492802 53.616213 -8.691413 10.303752 -30.972203 -3.899438 16.587690 0.000000 0.000000 0.000000 -0.931839 -8.332445 4.823568 -0.986659 -0.245321 -0.286795 9.579136 0.802577 4.273177 13.769909 -3.909172 5.894382 0.000000 0.000000 0.000000 9.982057 -1.893462 3.508392 3.224272 -1.985030 1.816924 0.000000 0.000000 0.000000 9.411782 -3.884404 3.631281 -4.320489 1.224516 -10.156807 3.635563 -26.165615 -56.326080 -4.797560 -70.048542 -9.079244 0.000000 0.000000 0.000000 11.222134 1.032591 5.064656 5.169560 15.194408 -3.217909 -6.148857 17.540815 65.594528 39.123641 46.045041 -41.386695 0.000000 0.000000 0.000000 
-9.777449 180.245941 21.024118 0.000000 0.000000 0.000000 1.386736 -10.050735 4.205724 -31.951085 9.008450 25.555214 38.897459 1.187520 -14.861397 -29.739306 3.393818 -4.940093 0.000000 0.000000 0.000000 0.425037 -8.019853 3.546333 -24.266154 -9.185984 -21.547468 51.657482 -9.956718 10.426525 -32.077734 -4.351417 17.605019 0.000000 0.000000 0.000000 0.035732 -8.032095 4.658634 -0.994716 -0.232221 -0.283073 9.444192 0.781836 4.482216 13.772557 -4.237882 6.111671 0.000000 0.000000 0.000000 10.210810 -2.141790 3.613228 3.363918 -2.019231 1.984127 0.000000 0.000000 0.000000 9.296319 -4.164360 3.353061 -4.265948 -0.111095 -9.005846 3.063611 -25.067633 -55.517007 -5.288288 -70.641074 -10.048007 0.000000 0.000000 0.000000 11.389409 0.805343 5.152933 5.656861 16.165239 -4.418802 -4.349028 19.146062 63.094228 44.051739 49.931838 -46.485765 0.000000 0.000000 0.000000 
-9.573786 180.607513 20.888220 0.000000 0.000000 0.000000 2.319221 -9.305135 4.015900 -33.610094 8.878425 24.182879 40.156492 1.765196 -14.745846 -30.537789 4.396524 -5.080843 0.000000 0.000000 0.000000 1.344352 -7.389962 3.290231 -23.824163 -9.817314 -20.635902 49.201165 -11.376013 10.499726 -32.546432 -4.848633 18.762502 0.000000 0.000000 0.000000 1.029409 -7.599214 4.456488 -0.994698 -0.203863 -0.280308 9.186821 0.666677 4.724019 13.974156 -4.539935 6.300264 0.000000 0.000000 0.000000 10.676354 -2.341747 3.734627 3.485231 -1.981357 2.101916 0.000000 0.000000 0.000000 9.271954 -4.414426 3.037221 -4.162557 -1.618358 -7.710267 2.755127 -24.017558 -54.472425 -5.032720 -71.110247 -10.216554 0.000000 0.000000 0.000000 11.746962 0.602451 5.237674 6.248837 17.103683 -5.794487 -3.490138 20.297517 60.647859 50.327897 53.479855 -52.907714 0.000000 0.000000 0.000000 
-9.519657 181.071259 20.666786 0.000000 0.000000 0.000000 3.210379 -8.334552 3.867078 -35.223559 8.937356 22.739544 40.787468 2.375703 -14.770216 -31.635148 5.570004 -4.636433 0.000000 0.000000 0.000000 2.175663 -6.634669 3.152843 -23.294461 -10.585733 -19.672751 46.328285 -13.004865 10.439786 -32.003347 -5.249769 19.706749 0.000000 0.000000 0.000000 2.014174 -7.138935 4.275722 -0.975050 -0.170255 -0.287150 8.862964 0.496045 4.810334 14.423512 -4.739685 6.463063 0.000000 0.000000 0.000000 11.391660 -2.411341 3.860405 3.581923 -1.844733 2.132519 0.000000 0.000000 0.000000 9.424083 -4.553448 2.757239 -3.985317 -3.141311 -6.275061 2.506837 -22.860317 -53.567193 -3.868809 -71.341435 -9.365268 0.000000 0.000000 0.000000 12.258112 0.483027 5.352125 6.911924 17.893921 -7.135312 -3.842533 20.890023 58.551913 57.144399 56.065167 -59.942273 0.000000 0.000000 0.000000 
